<svg width="152" height="97" viewBox="0 0 152 97" fill="none" xmlns="http://www.w3.org/2000/svg">
<path d="M140.642 0.101807C133.987 0.101807 127.807 5.0919 126.619 11.2701C125.43 17.4483 130.184 22.4384 137.077 22.4384C143.732 22.4384 149.912 17.4483 151.101 11.2701C151.814 5.0919 147.298 0.101807 140.642 0.101807Z" fill="#093E83"/>
<path d="M56.9753 72.8146H66.7207H80.9822C81.2199 77.3295 84.3099 79.4681 89.0637 79.7057C89.3014 79.7057 89.7768 79.7057 90.0145 79.7057C94.7683 79.4681 98.8091 77.0919 99.2844 73.7651C99.5221 71.8641 97.8583 71.1513 92.6291 69.9632L80.7445 67.8245C80.0314 67.5869 79.3183 67.5869 78.6053 67.3493C78.3676 67.3493 78.1299 67.1117 77.8922 67.1117C77.4168 67.1117 76.9414 66.874 76.466 66.6364C76.2283 66.6364 75.9906 66.3988 75.5153 66.3988C75.0399 66.1612 74.8022 66.1612 74.3268 65.9236C73.1383 65.4483 71.9499 64.9731 70.7614 64.2602L70.5237 64.0226C70.0484 63.7849 69.8107 63.5473 69.3353 63.3097C63.6307 59.5077 61.2538 53.5671 62.6799 46.2008C63.393 41.6859 65.2945 38.1216 67.9091 35.0325C63.6307 29.0919 55.0738 25.2899 42.9515 25.2899C22.51 25.2899 10.3878 35.983 7.53546 48.577H30.1162C31.3046 44.2998 34.87 42.3988 39.6238 42.3988C43.9023 42.3988 46.5169 44.2998 46.0415 47.8642V48.1018C45.3284 52.1414 40.5746 53.3295 29.1654 54.28C14.9039 55.4681 3.01931 61.1711 0.404706 76.1414C-1.97221 89.6859 6.347 96.1018 19.42 96.1018C28.4523 96.1018 35.5831 93.0126 41.05 85.4087H41.5254L39.8615 95.1513H62.9176L63.8684 89.6859C58.8768 85.4087 56.4999 79.7057 56.9753 72.8146ZM42.7138 70.676C41.763 76.8542 35.8208 80.4186 30.1162 80.4186C25.8377 80.4186 23.2231 78.28 23.9362 74.478C24.4116 70.9136 27.5016 68.2998 33.4438 67.3493C37.4846 66.6364 41.05 65.9236 43.6646 64.7354L42.7138 70.676Z" fill="#093E83"/>
<path d="M123.529 26.4778L122.34 34.0817C125.668 37.8837 127.094 42.8738 126.381 48.8144H119.964H104.276C104.514 44.5372 101.424 41.9233 97.1451 41.9233C92.1536 41.9233 87.6375 44.2996 87.1621 47.8639C86.9244 49.2897 87.3998 50.4778 92.629 51.4283L106.177 54.0421C106.89 54.2797 107.604 54.2797 108.317 54.5174C108.554 54.5174 108.792 54.755 109.03 54.755C109.505 54.755 109.743 54.9926 110.218 54.9926C110.456 54.9926 110.931 55.2302 111.169 55.2302C111.407 55.2302 111.644 55.4679 111.644 55.4679C121.152 58.557 125.43 64.7352 124.004 73.7649C122.816 80.656 118.775 86.1213 112.833 89.9233L111.882 95.151H136.602L148.011 26.7154H123.529V26.4778Z" fill="#093E83"/>
</svg>
