<svg width="120" height="48" viewBox="0 0 120 48" fill="none" xmlns="http://www.w3.org/2000/svg">
<path d="M69.9001 0C66.5901 0 63.5201 2.48 62.9301 5.55C62.3401 8.62 64.7001 11.1 68.1301 11.1C71.5601 11.1 74.5101 8.62 75.1001 5.55C75.4501 2.48 73.2101 0 69.9001 0Z" fill="#333333"/>
<path d="M46.0399 34.72L40.1299 33.66C39.7699 33.54 39.4199 33.54 39.0699 33.43C38.9499 33.43 38.8299 33.31 38.7099 33.31C38.4799 33.31 38.2399 33.19 37.9999 33.07C37.8799 33.07 37.7699 32.95 37.5299 32.95C37.2899 32.83 37.1799 32.83 36.9399 32.72C36.3499 32.48 35.7599 32.24 35.1699 31.89L35.0499 31.77C34.8099 31.65 34.6899 31.54 34.4599 31.42C31.6199 29.53 30.4399 26.58 31.1499 22.91C31.5099 20.67 32.4499 18.9 33.7499 17.36C31.6199 14.41 27.3699 12.52 21.3499 12.52C11.1899 12.52 5.15992 17.84 3.73992 24.09H14.9699C15.5599 21.97 17.3299 21.02 19.6899 21.02C21.8199 21.02 23.1199 21.97 22.8799 23.74V23.86C22.5299 25.87 20.1599 26.46 14.4899 26.93C7.40992 27.52 1.49992 30.35 0.199921 37.8C-0.980079 44.53 3.14992 47.72 9.64992 47.72C14.1399 47.72 17.6799 46.18 20.3999 42.4H20.6399L19.8099 47.24H31.2699L31.7399 44.53C29.2599 42.4 28.0799 39.57 28.3199 36.14H40.2499C40.3699 38.39 41.8999 39.45 44.2599 39.57H44.7399C47.0999 39.45 49.1099 38.27 49.3399 36.61C49.4599 35.67 48.6399 35.31 46.0399 34.72ZM21.2299 35.08C20.7499 38.15 17.7999 39.92 14.9699 39.92C12.8399 39.92 11.5399 38.86 11.8899 36.97C12.1299 35.2 13.6699 33.9 16.6199 33.43C18.6299 33.07 20.3999 32.72 21.6999 32.13L21.2299 35.08Z" fill="#333333"/>
<path d="M68.05 40.9301C68.28 40.8901 68.58 40.8701 68.95 40.8701L68.23 45.2001C67.9 45.2001 67.6 45.1701 67.34 45.1001C66.97 45.0201 66.7 44.8901 66.54 44.6901C66.33 44.5401 66.21 44.2801 66.18 43.9101C66.15 43.6601 66.17 43.3501 66.24 42.9801C66.29 42.6701 66.38 42.4001 66.5 42.1501C66.66 41.7901 66.88 41.5301 67.15 41.3401C67.38 41.1401 67.68 41.0101 68.05 40.9301Z" fill="#333333"/>
<path d="M73.5601 13.2301L69.0801 40.0701C68.5601 40.0701 68.1401 40.1001 67.8201 40.1601C67.3101 40.2601 66.9001 40.4501 66.5901 40.7201C66.2201 40.9701 65.9201 41.3401 65.7001 41.8301C65.5401 42.1601 65.4201 42.5401 65.3401 42.9701C65.2501 43.4701 65.2201 43.8901 65.2601 44.2401C65.3101 44.7401 65.4701 45.0901 65.7601 45.3101C65.9701 45.5701 66.3401 45.7601 66.8501 45.8701C67.2201 45.9601 67.6401 46.0001 68.1001 46.0001L67.8901 47.2401H55.6101L56.0801 44.6501C59.0301 42.7601 61.0401 40.0401 61.6301 36.6101C62.3401 32.1301 60.2101 29.0601 55.4901 27.5201C55.4901 27.5201 55.3701 27.4001 55.2501 27.4001C55.1301 27.4001 54.9001 27.2801 54.7801 27.2801C54.5401 27.2801 54.4201 27.1701 54.1901 27.1701C54.0701 27.1701 53.9501 27.0501 53.8301 27.0501C53.4801 26.9301 53.1201 26.9301 52.7701 26.8101L46.0401 25.5101C43.4401 25.0401 43.2001 24.4501 43.3201 23.7401C43.5601 21.9701 45.8001 20.7901 48.2801 20.7901C50.4101 20.7901 51.9401 22.0901 51.8201 24.2101H62.8101C63.1701 21.2601 62.4601 18.7801 60.8001 16.8901L61.3901 13.1101V13.2301H73.5601Z" fill="#333333"/>
<path d="M71.16 42.1501C71.13 41.7901 71.02 41.5301 70.82 41.3401C70.65 41.1401 70.39 41.0101 70.04 40.9301C69.81 40.8901 69.49 40.8701 69.06 40.8701H68.95C68.58 40.8701 68.28 40.8901 68.05 40.9301C67.68 41.0101 67.38 41.1401 67.15 41.3401C66.88 41.5301 66.66 41.7901 66.5 42.1501C66.38 42.4001 66.29 42.6701 66.24 42.9801C66.17 43.3501 66.15 43.6601 66.18 43.9101C66.21 44.2801 66.33 44.5401 66.54 44.6901C66.7 44.8901 66.97 45.0201 67.34 45.1001C67.6 45.1701 67.9 45.2001 68.23 45.2001H68.27C68.62 45.2001 68.94 45.1701 69.24 45.1001C69.65 45.0201 69.97 44.8901 70.21 44.6901C70.47 44.5401 70.68 44.2801 70.84 43.9101C70.95 43.6801 71.04 43.3701 71.11 42.9801C71.17 42.6601 71.18 42.3801 71.16 42.1501Z" fill="#333333"/>
<path d="M87.38 32.8801C86.83 30.8601 85 29.8601 81.91 29.8601C80.8 29.8601 79.73 30.0201 78.69 30.3401C76.33 31.2001 74.91 32.9501 74.43 35.5701L73.78 39.1601C73.61 40.1101 73.62 41.0301 73.82 41.9001C74.37 44.1201 76.29 45.2301 79.57 45.2301C80.85 45.2301 81.99 45.1701 82.99 45.0601C84.61 44.8101 85.42 44.6601 85.43 44.6101L86.11 40.8701H86.08C84.29 41.2201 82.58 41.4001 80.94 41.4001H80.57C79.96 41.4001 79.42 41.3301 78.97 41.1901C78.39 40.9701 78.19 40.3601 78.37 39.3501L78.45 38.9001H86.82L87.3 36.2401C87.57 34.7901 87.59 33.6701 87.38 32.8801ZM82.81 35.5501L82.76 35.7901H79.02L79.14 35.0901C79.35 33.9401 80.07 33.3601 81.3 33.3601C81.79 33.3601 82.18 33.4701 82.47 33.7001C82.88 33.8901 83 34.5101 82.81 35.5501Z" fill="#333333"/>
<path d="M100.24 24.06C100.11 24.69 99.98 25.35 99.85 26.04L99.12 29.99L99.02 30.45C98 30.1 96.94 29.91 95.84 29.88C93.18 29.88 91.41 30.58 90.54 31.96C90.05 32.62 89.6 34.06 89.19 36.3L88.92 37.79C88.49 40.19 88.4 41.69 88.67 42.29C88.71 42.65 88.95 43.11 89.37 43.67C90.31 44.71 92.13 45.23 94.82 45.23C95.73 45.23 96.72 45.18 97.79 45.08C98.75 44.98 99.85 44.83 101.07 44.64L104.95 23.25L100.24 24.06ZM97.03 41.4L95.37 41.45C94.03 41.45 93.31 41.02 93.22 40.17C93.2 39.89 93.22 39.58 93.28 39.24L93.96 35.49C94.14 34.53 94.68 33.97 95.61 33.81L96.28 33.78C97.02 33.78 97.69 34 98.3 34.42L97.03 41.4Z" fill="#333333"/>
<path d="M114.62 30.1001L112.67 40.6701C111.98 41.0601 111.27 41.2701 110.54 41.3201C110.32 41.3301 110.02 41.3301 109.65 41.2901C108.79 41.0901 108.45 40.5201 108.62 39.5801L110.34 30.1001H105.66L104.09 38.7301C103.7 40.8901 103.62 42.3601 103.85 43.1301C104.25 44.0201 104.83 44.6201 105.61 44.9401C106.21 45.1901 107.05 45.2801 108.12 45.2301C108.65 45.2101 109.18 45.1501 109.72 45.0401C110.14 44.9501 110.57 44.8401 111.01 44.6901L112.47 44.1101C112.48 44.2401 112.5 44.3701 112.52 44.4901C112.53 44.5301 112.55 44.5801 112.57 44.6401L112.73 45.0401H116.55L119.27 30.1001H114.62Z" fill="#333333"/>
<path d="M71.16 42.1501C71.13 41.7901 71.02 41.5301 70.82 41.3401C70.65 41.1401 70.39 41.0101 70.04 40.9301C69.81 40.8901 69.49 40.8701 69.06 40.8701H68.95C68.58 40.8701 68.28 40.8901 68.05 40.9301C67.68 41.0101 67.38 41.1401 67.15 41.3401C66.88 41.5301 66.66 41.7901 66.5 42.1501C66.38 42.4001 66.29 42.6701 66.24 42.9801C66.17 43.3501 66.15 43.6601 66.18 43.9101C66.21 44.2801 66.33 44.5401 66.54 44.6901C66.7 44.8901 66.97 45.0201 67.34 45.1001C67.6 45.1701 67.9 45.2001 68.23 45.2001H68.27C68.62 45.2001 68.94 45.1701 69.24 45.1001C69.65 45.0201 69.97 44.8901 70.21 44.6901C70.47 44.5401 70.68 44.2801 70.84 43.9101C70.95 43.6801 71.04 43.3701 71.11 42.9801C71.17 42.6601 71.18 42.3801 71.16 42.1501Z" fill="#333333"/>
</svg>
